HIERARCHY
ROOT Hips
{
  OFFSET 0 0 0
  CHANNELS 6 Xposition Yposition Zposition Zrotation Yrotation Xrotation
  JOINT LeftThigh
  {
    OFFSET 8.409438 0 -5.917753
    CHANNELS 3 Zrotation Yrotation Xrotation
    JOINT LeftLeg
    {
      OFFSET 0 0 -42.358652
      CHANNELS 3 Zrotation Yrotation Xrotation
      JOINT LeftFoot
      {
        OFFSET 0 0 -39.357303
        CHANNELS 3 Zrotation Yrotation Xrotation
      }
    }
  }
  JOINT RightThigh
  {
    OFFSET -8.409438 0 -5.917753
    CHANNELS 3 Zrotation Yrotation Xrotation
    JOINT RightLeg
    {
      OFFSET 0 0 -42.358652
      CHANNELS 3 Zrotation Yrotation Xrotation
      JOINT RightFoot
      {
        OFFSET 0 0 -39.357303
        CHANNELS 3 Zrotation Yrotation Xrotation
      }
    }
  }
  JOINT SpineLow
  {
    OFFSET 0 0 4.719101
    CHANNELS 3 Zrotation Yrotation Xrotation
    JOINT SpineMid
    {
      OFFSET 0 0 12.899191
      CHANNELS 3 Zrotation Yrotation Xrotation
      JOINT Chest
      {
        OFFSET 0 0 12.899191
        CHANNELS 3 Zrotation Yrotation Xrotation
        JOINT LeftShoulder
        {
          OFFSET 7.550562 1.41573 9.438202
          CHANNELS 3 Zrotation Yrotation Xrotation
          JOINT LeftArm
          {
            OFFSET 9.155056 0 4.247191
            CHANNELS 3 Zrotation Yrotation Xrotation
            JOINT LeftForearm
            {
              OFFSET 0 0 25.771955
              CHANNELS 3 Zrotation Yrotation Xrotation
              JOINT LeftHand
              {
                OFFSET 0 0 25.197169
                CHANNELS 3 Zrotation Yrotation Xrotation
              }
            }
          }
        }
        JOINT RightShoulder
        {
          OFFSET -7.550562 1.41573 9.438202
          CHANNELS 3 Zrotation Yrotation Xrotation
          JOINT RightArm
          {
            OFFSET -9.155056 0 4.247191
            CHANNELS 3 Zrotation Yrotation Xrotation
            JOINT RightForearm
            {
              OFFSET 0 0 -25.771955
              CHANNELS 3 Zrotation Yrotation Xrotation
              JOINT RightHand
              {
                OFFSET 0 0 -25.197169
                CHANNELS 3 Zrotation Yrotation Xrotation
              }
            }
          }
        }
        JOINT Neck
        {
          OFFSET 0 0 15.101124
          CHANNELS 3 Zrotation Yrotation Xrotation
          JOINT Head
          {
            OFFSET 0 0 11.325843
            CHANNELS 3 Zrotation Yrotation Xrotation
            End Site
            {
              OFFSET 0 0 14.157303
            }
          }
        }
      }
    }
  }
}
MOTION
Frames: 14
Frame Time: 0.0
0.0  89.887642  0.0  1.328598  2.256516  -125.660867  11.516961  -9.746705  12.270401  -17.835235  11.482754  30.895533  -5.110025  -0.678369  1.955577  14.381021  -6.172492  -74.194294  2.931337  21.923397  75.436093  11.022041  -1.629403  -4.433003  0.057885  -0.864431  4.829214  -0.014694  -2.363545  13.203294  -0.014694  -2.363545  13.203294  -26.212137  29.86517  8.945884  159.348162  45.296138  -153.275938  -22.285759  0.979502  99.697806  56.935139  -5.854819  49.418049  -8.21848  8.377254  27.396203  90.578983  63.290049  18.135944  -19.971992  -0.917655  -71.278315  84.587156  5.380154  -17.038606  -35.450982  -1.470203  1.419403  -26.583548  -1.189925  0.982969  
0.0  89.887642  0.0  1.274481  2.166806  -125.210592  11.989479  -9.898974  11.879288  -17.575931  11.011248  30.595574  -5.410266  -0.684937  2.062128  14.470911  -6.707552  -73.464304  0.712716  17.309143  59.310201  7.878301  -3.150711  -4.733351  0.180628  -0.67903  4.855871  0.355551  -1.883632  13.271195  0.355551  -1.883632  13.271194  -28.232836  28.775415  8.569003  162.209281  47.64701  -150.342748  -22.500669  3.679629  101.973302  55.221172  -6.397704  47.038829  -10.002228  7.406627  26.724694  93.125128  59.987409  20.117625  -20.033483  -0.784668  -72.446967  84.630981  2.835769  -16.509005  -35.817185  -2.574819  1.866599  -26.850824  -2.049112  1.253551  
0.0  89.887642  0.0  1.377518  2.564493  -124.928513  11.420862  -9.212112  11.786583  -16.935027  10.442733  30.376489  -5.506138  -0.67463  2.073837  11.792802  -5.357425  -69.250218  0.136176  9.329857  40.850125  4.753858  -4.823979  -5.362815  -0.129449  -0.649558  4.844324  -0.482076  -1.741453  13.247747  -0.482076  -1.741453  13.247747  -28.529403  29.396419  7.605604  165.265047  50.071966  -146.727942  -22.592368  6.821802  104.165216  53.891666  -7.135453  44.024393  -9.907176  8.621754  26.288374  95.005562  56.482034  21.454515  -20.386302  -0.335117  -73.810897  85.122154  0.042495  -15.901426  -35.138409  -2.667587  1.67114  -26.341999  -2.105245  1.103706  
0.0  89.887642  0.0  1.338155  3.908375  -124.555927  9.59858  -7.777447  11.792066  -15.860949  9.746805  30.176066  -5.525611  -0.724542  2.030468  10.151804  -2.460127  -63.445563  -0.600138  4.779582  22.632554  4.611727  -6.400884  -6.290933  -0.786293  -0.59038  4.787843  -2.256492  -1.451038  13.106668  -2.256492  -1.451038  13.106668  -27.605746  30.384106  6.586246  168.791274  52.417977  -142.203536  -22.437738  9.799482  106.163415  53.367104  -8.060072  40.691921  -8.710275  10.406401  25.621949  96.295637  52.448377  22.174122  -20.979243  0.766886  -75.376733  86.370196  -2.801626  -15.46029  -33.740083  -2.459331  1.445869  -25.295536  -1.93147  0.951599  
0.0  89.887642  0.0  0.973869  6.082329  -124.113152  6.969224  -6.209928  11.834908  -14.407749  9.073212  29.917998  -5.740868  -0.852469  2.039528  11.741736  6.308733  -61.289861  -6.76056  1.681329  10.489063  3.21236  -7.724172  -4.882888  -1.387972  -0.454301  4.575439  -3.864294  -0.974329  12.528702  -3.864295  -0.974329  12.528703  -25.806527  31.66462  7.200239  171.663181  55.555699  -137.343126  -22.066321  12.416675  108.158627  53.868783  -8.895436  37.374598  -8.546353  11.209146  25.17388  97.30226  47.468131  22.770394  -21.765717  2.690462  -77.027868  88.207818  -5.297208  -15.477782  -32.934017  -2.224943  1.943539  -24.690655  -1.779777  1.341957  
0.0  89.887642  0.0  0.982483  7.476402  -123.756049  6.127465  -5.50825  12.240771  -13.741025  8.897456  29.210772  -6.085597  -0.951723  2.072875  17.687205  28.292712  -70.25856  -27.333481  -0.257838  15.717406  1.60479  -8.326827  -3.81369  -1.692961  -0.241617  4.504307  -4.654044  -0.343007  12.322155  -4.654044  -0.343006  12.322155  -26.002288  31.269379  7.046835  177.363395  57.969883  -130.368406  -21.644762  14.14671  109.269898  54.963348  -9.981374  35.03716  -9.580905  11.251236  23.695923  97.996723  41.996949  22.918406  -22.490597  5.206937  -78.860217  90.072286  -7.311863  -16.089139  -32.505428  -2.559166  2.442498  -24.365287  -2.056432  1.70088  
0.0  89.887642  0.0  2.080492  6.086258  -123.348881  9.037986  -6.810226  12.884186  -14.400361  9.72477  28.185822  -6.615337  -0.790939  1.799277  20.9978  39.675681  -71.933919  -40.463756  -0.476665  14.719875  -0.053148  -9.82215  -1.424374  -1.484317  -0.009063  4.584857  -4.04222  0.255941  12.527423  -4.04222  0.255941  12.527423  -26.813673  30.00187  5.918067  -175.394152  59.731373  -122.343609  -21.372622  14.270844  110.041524  55.549627  -11.064484  33.492984  -11.075675  10.920352  21.645724  98.489658  36.709654  22.988624  -22.851702  7.606102  -81.003513  91.753725  -8.638498  -17.145267  -32.074092  -3.179897  2.690879  -24.035982  -2.534683  1.856424  
0.0  89.887642  0.0  3.815592  3.218984  -124.129997  11.686051  -8.700668  14.092801  -15.050633  11.570665  27.742044  -6.171226  -0.352897  1.424785  23.357398  34.969309  -74.26689  -46.57685  5.458566  15.919778  2.048868  -8.788842  0.185511  -1.04569  0.244936  4.879946  -2.795795  0.876611  13.326085  -2.795796  0.876611  13.326085  -27.542063  28.470273  4.559261  -166.667163  61.00547  -113.2019  -21.729557  13.561234  110.118439  55.648232  -11.976394  32.53958  -12.58355  10.210522  19.322203  98.922871  31.408868  23.408377  -22.295851  9.490101  -83.34868  92.835105  -9.316503  -18.11754  -31.476441  -3.753323  2.604412  -23.58342  -2.958662  1.764325  
0.0  89.887642  0.0  4.883042  1.903837  -125.124967  9.980964  -7.370563  14.389483  -14.160837  12.243926  28.901019  -4.570362  0.139741  1.375574  18.574152  21.583027  -78.20033  -38.870368  7.484984  22.329856  2.47296  -7.569478  2.239823  -1.004398  0.535261  5.161935  -2.617674  1.668855  14.087323  -2.617674  1.668855  14.087323  -27.51399  27.065013  3.517772  -156.806528  61.732747  -103.190859  -22.518376  12.346631  109.404076  54.992284  -12.597892  31.675524  -13.408042  9.748745  18.915796  97.953309  28.156401  22.724745  -19.091036  11.632298  -85.469551  93.133859  -9.235464  -18.472729  -30.300942  -4.231136  2.372077  -22.699356  -3.30075  1.572425  
0.0  89.887642  0.0  4.927723  1.610024  -125.831725  7.055383  -4.94031  14.039881  -13.385789  12.01023  30.422983  -2.831176  0.538015  1.641685  13.482403  4.304947  -83.221103  -22.994906  9.847272  33.481338  0.226628  -6.323815  2.810333  -1.411766  0.789137  5.231323  -3.669522  2.449045  14.253553  -3.669522  2.449045  14.253553  -25.77291  26.399681  3.853833  -146.332389  61.247225  -92.656344  -23.251317  11.082471  107.920478  53.647964  -12.833969  30.888691  -12.495138  10.358264  20.700439  97.924155  28.713264  21.412318  -14.305694  13.046618  -85.86119  93.87909  -7.166315  -19.281836  -28.328541  -4.164602  2.432905  -21.220869  -3.244632  1.634465  
0.0  89.887642  0.0  3.825856  1.429818  -127.716196  6.041848  -4.722211  14.973804  -14.265185  12.104396  31.615815  -1.600551  0.567557  2.022852  8.855362  -12.616844  -88.644967  -6.729567  11.546163  48.34412  -0.773391  -4.865206  3.117416  -2.155223  0.905487  5.212044  -5.668401  2.922627  14.161248  -5.668401  2.922627  14.161248  -21.90161  27.066849  6.111981  -137.007433  60.02026  -82.869229  -24.307969  10.117549  105.497052  52.236418  -12.783164  30.167005  -9.311829  11.428294  23.761168  101.808857  31.073642  23.560278  -11.684661  12.423162  -86.381023  98.161862  -3.887834  -21.67899  -25.530349  -3.032133  3.067388  -19.128674  -2.407386  2.177626  
0.0  89.887642  0.0  3.179332  0.315248  -130.923763  8.352854  -7.099774  17.649464  -14.983788  12.205345  32.789879  -2.925012  0.015521  2.04854  9.227367  -24.141693  -89.360134  5.889161  14.577517  57.561489  -0.389785  -4.204492  5.543831  -2.835956  1.096159  5.268943  -7.477975  3.591031  14.263511  -7.477975  3.591031  14.263511  -17.419393  28.117968  8.713317  -129.589445  59.018773  -74.943597  -26.01077  9.368533  102.058313  51.203419  -12.580488  29.417158  -5.254519  11.483692  26.047931  107.895212  30.920003  28.334012  -12.857879  13.126867  -87.087111  105.105855  0.582198  -23.558453  -22.41741  -1.565631  4.042546  -16.802559  -1.324797  2.979002  
0.0  89.887642  0.0  3.621023  -1.986542  -132.414461  12.168858  -9.731133  19.200539  -14.830226  11.579231  33.07026  -5.174214  -0.400449  2.104167  11.955448  -29.916105  -88.082678  12.522195  16.797671  65.91601  2.052184  -3.18153  4.662066  -3.164848  1.277844  5.177655  -8.342128  4.143128  13.974078  -8.342128  4.143129  13.974079  -15.623973  28.747243  8.815487  -123.701196  59.024271  -69.655845  -28.184577  10.476871  99.453447  53.37198  -11.133539  27.498075  -1.897852  10.885839  26.926275  114.045233  30.079686  33.178331  -16.713911  16.043191  -87.950178  109.681652  5.029775  -24.57738  -19.714025  -0.462495  4.770308  -14.782915  -0.501501  3.567195  
0.0  89.887642  0.0  5.043057  -4.377359  -130.500698  15.300366  -10.339416  17.743751  -13.287035  11.27413  32.882001  -7.178422  -0.672314  2.038269  17.936023  -29.871643  -91.465763  16.14133  19.548749  75.383935  5.848635  -3.229195  3.790341  -3.018021  1.385904  4.808262  -7.947344  4.362913  12.963478  -7.947344  4.362913  12.963478  -16.767471  28.410966  8.279819  -119.173698  59.234419  -64.928909  -30.671188  8.563796  94.925801  54.380945  -11.42678  26.015653  -1.939054  9.269979  25.525784  119.43123  28.176698  36.966008  -20.221949  18.177144  -87.954099  109.761219  8.840302  -27.37682  -18.561299  -0.225917  5.072417  -13.920232  -0.323962  3.801609  
